<?xml version="1.0" encoding="UTF-8" standalone="no" ?>
<COLLADA xmlns="http://www.collada.org/2005/11/COLLADASchema" version="1.4.1">
  <asset>
    <contributor>
      <author>Assimp</author>
      <authoring_tool>Assimp Exporter</authoring_tool>
    </contributor>
    <created>2025-01-25T17:57:25</created>
    <modified>2025-01-25T17:57:25</modified>
    <unit name="meter" meter="1" />
    <up_axis>Y_UP</up_axis>
  </asset>
  <library_images>
    <image id="material-diffuse-image">
      <init_from>textures/0bd5599de27f82dfa7fcdba7b9ccf3a2.jpg</init_from>
    </image>
    <image id="material-normal-image">
      <init_from>textures/d99a04c38f090aa3a0b96f0985e95eaf.jpg</init_from>
    </image>
  </library_images>
  <library_effects>
    <effect id="material-fx" name="material">
      <profile_COMMON>
        <newparam sid="material-diffuse-surface">
          <surface type="2D">
            <init_from>material-diffuse-image</init_from>
          </surface>
        </newparam>
        <newparam sid="material-diffuse-sampler">
          <sampler2D>
            <source>material-diffuse-surface</source>
          </sampler2D>
        </newparam>
        <newparam sid="material-normal-surface">
          <surface type="2D">
            <init_from>material-normal-image</init_from>
          </surface>
        </newparam>
        <newparam sid="material-normal-sampler">
          <sampler2D>
            <source>material-normal-surface</source>
          </sampler2D>
        </newparam>
        <technique sid="standard">
          <phong>
            <diffuse>
              <texture texture="material-diffuse-sampler" texcoord="CHANNEL0" />
            </diffuse>
            <bump>
              <texture texture="material-normal-sampler" texcoord="CHANNEL0" />
            </bump>
          </phong>
        </technique>
      </profile_COMMON>
    </effect>
  </library_effects>
  <library_materials>
    <material id="material" name="material">
      <instance_effect url="#material-fx"/>
    </material>
  </library_materials>
  <library_geometries>
    <geometry id="mesh_0" name="" >
      <mesh>
        <source id="mesh_0-positions" name="mesh_0-positions">
          <float_array id="mesh_0-positions-array" count="792"> 0.0199964494 0.00482545746 0.000758231385 0.0194019806 0.0122329695 -0.000995292212 0.0187461656 0.00716593349 0.00629393989 0.0212467331 0.0024849812 -0.00477747712 0.0145586235 0.0158034395 0.00815185253 0.0140058873 0.00173231692 0.00828616321 0.0199964494 0.00482545746 0.000758231385 0.0128594087 0.00105587742 -0.000567389419 0.0212467331 0.0024849812 -0.00477747712 0.0193074588 0.00818898715 -0.0113770133 0.0193036348 0.021379834 0.00150280865 0.00800385419 0.0105051026 0.0141701018 0.0140058873 0.00173231692 0.00828616321 0.0126152439 0.000472138607 -0.00967927277 0.0193074588 0.00818898715 -0.0113770133 0.0212467331 0.0024849812 -0.00477747712 0.0126152439 0.000472138607 -0.00967927277 0.0199171808 0.0180009548 -0.00870395917 0.0148750367 0.0250893235 0.0102203311 0.00746908691 0.0201378446 0.0147596877 0.00548072951 0.000663096842 0.00524847489 0.00671538105 0.00165740715 0.0138304131 0.00431171805 0.00108441024 -0.00386920152 0.0115027642 0.00426533027 -0.0178805236 0.01446814 0.0145985382 -0.0170696322 0.0199171808 0.0180009548 -0.00870395917 0.0198183283 0.0272694658 -0.00615889858 0.0195501335 0.0306414552 0.00357132591 0.00746908691 0.0201378446 0.0147596877 -0.00131710724 0.0155854421 0.0150129525 0.00800385419 0.0105051026 0.0141701018 0.00671538105 0.00165740715 0.0138304131 0.00671538105 0.00165740715 0.0138304131 -0.00159429852 0.00650556199 0.0177012142 0.003552326 0.00163992995 -0.0129002193 0.0115027642 0.00426533027 -0.0178805236 0.0152953956 0.0239484552 -0.0145066222 0.0198183283 0.0272694658 -0.00615889858 0.00764761446 0.0295557044 0.0155453021 0.0154591482 0.0344654173 0.0120149525 -0.000949463807 0.025200123 0.0161842983 -0.00231600157 0.00120808417 0.0103756832 -0.00365041639 0.0017465878 0.00161923538 -0.00159429852 0.00650556199 0.0177012142 -0.00458248751 0.00202865014 -0.00747568486 0.00505904015 0.0116367135 -0.02002283 0.00282034092 0.00268623489 -0.0218230598 0.00636922661 0.0204726923 -0.0177355018 0.0158040468 0.0331178978 -0.0123221017 0.0199941527 0.0364794582 -0.00392949954 0.00764761446 0.0295557044 0.0155453021 0.0196474642 0.0399692319 0.00533762714 -0.00971422624 0.0210153088 0.0164502952 -0.0100531215 0.0117394924 0.0156766102 -0.0104172975 0.00422419282 0.0149089927 -0.00555384485 0.0019223222 -0.0170795899 0.00282034092 0.00268623489 -0.0218230598 0.00732302433 0.0294757076 -0.0158586893 0.0199941527 0.0364794582 -0.00392949954 0.00831929967 0.0390398726 0.0172423441 -0.000278749183 0.0346899517 0.0179433636 0.0153852869 0.0439310074 0.0131815979 -0.00895959418 0.0306281429 0.0173539445 -0.0104172975 0.00422419282 0.0149089927 -0.0121065667 0.00192691968 0.00690665422 -0.0129488977 0.00254195137 -0.00189538486 -0.0131896837 0.00319941668 -0.0110259298 -0.00424211752 0.00879957061 -0.0219484828 -0.00281014619 0.0172719359 -0.0193105265 -0.00555384485 0.0019223222 -0.0170795899 -0.00172513339 0.0257576313 -0.0167891122 0.0164035112 0.0422592871 -0.0105996206 0.00810609572 0.0384876579 -0.0140052717 0.0198823214 0.045655515 -0.00212337845 0.00831929967 0.0390398726 0.0172423441 0.0197237991 0.0492602177 0.0065828748 -0.0176402181 0.0269233808 0.0151531035 -0.0188110769 0.0170775335 0.0143239638 -0.0193607993 0.006677086 0.0129214777 -0.0193607993 0.006677086 0.0129214777 -0.0120378984 0.006030994 -0.0186380986 -0.0120378984 0.006030994 -0.0186380986 -0.000749306346 0.0346053876 -0.0146681732 0.0198823214 0.045655515 -0.00212337845 0.00939902198 0.0485943779 0.0190082267 0.000440564618 0.0442630649 0.0197760332 -0.00801260117 0.0403658822 0.018844923 0.0158659257 0.0533340797 0.01417452 -0.0159257483 0.0366360694 0.0158062167 -0.0227356404 0.00410723034 0.00353487302 -0.0214744993 0.0043651117 -0.0056852554 -0.0192370377 0.00876293611 -0.0133124432 -0.01195479 0.0136336833 -0.0177717563 -0.0106526092 0.021942731 -0.0157597251 -0.0120378984 0.006030994 -0.0186380986 -0.01195479 0.0136336833 -0.0177717563 -0.00424211752 0.00879957061 -0.0219484828 -0.00962270424 0.0306519382 -0.0137008317 0.0168167502 0.0513086095 -0.00904905517 0.00879147928 0.0475835726 -0.0126288161 0.00014409337 0.0437145866 -0.0135477232 0.0200685058 0.0547252744 -0.000957040524 0.00939902198 0.0485943779 0.0190082267 0.0203582253 0.0584101863 0.00758848339 -0.0205854233 0.0332346894 0.00839936826 -0.0176402181 0.0269233808 0.0151531035 -0.0159257483 0.0366360694 0.0158062167 -0.0226006508 0.0237464607 0.00732749468 -0.0188110769 0.0170775335 0.0143239638 -0.0240325127 0.0140039558 0.00596755184 -0.0193607993 0.006677086 0.0129214777 -0.0227356404 0.00410723034 0.00353487302 -0.0192370377 0.00876293611 -0.0133124432 -0.00871787593 0.0396416411 -0.0124712307 0.0200685058 0.0547252744 -0.000957040524 0.00175973307 0.0538870767 0.0217434205 0.0100942599 0.0579327866 0.019943608 -0.0073089893 0.0501191318 0.0201480277 -0.0150828511 0.0463863499 0.0168429501 0.0160876308 0.062596269 0.0147377448 -0.0192213561 0.0429018214 0.00927642919 -0.02298568 0.0118955877 -0.00439040549 -0.0214744993 0.0043651117 -0.0056852554 -0.017542528 0.0171407983 -0.0107255094 -0.0106526092 0.021942731 -0.0157597251 -0.0160722323 0.0258238204 -0.00871437043 -0.00962270424 0.0306519382 -0.0137008317 -0.0155068524 0.0349858478 -0.00774768041 -0.00871787593 0.0396416411 -0.0124712307 0.0175209921 0.0602787137 -0.00794249121 0.00953168143 0.0565748438 -0.0113144843 0.00108980376 0.0526728854 -0.0123457247 -0.00753772445 0.0487735905 -0.0114950677 0.021222258 0.0637585968 -0.000151779735 0.0100942599 0.0579327866 0.019943608 -0.0150828511 0.0463863499 0.0168429501 0.0202074405 0.0674895197 0.00831523538 -0.0198034029 0.0297513716 -0.000765473233 -0.0183911547 0.0389802866 0.000472088053 -0.0211512819 0.0204642676 -0.00197670236 -0.0147212753 0.0442277007 -0.00696510496 0.021222258 0.0637585968 -0.000151779735 -0.00753772445 0.0487735905 -0.0114950677 0.0024219139 0.0633288845 0.0217523407 -0.00620637089 0.0598517358 0.0210401788 0.0105341692 0.0672488511 0.0202884115 -0.0141678154 0.0564019829 0.017266266 -0.0181128681 0.0526956692 0.00983839761 0.0159779675 0.0716568381 0.0146844974 -0.0176314935 0.0484400801 0.00127734442 0.0104412381 0.0656887814 -0.0105742598 0.0178013537 0.0691888034 -0.0074121845 0.00201685517 0.0618319251 -0.0117834639 -0.00611983472 0.0574014969 -0.0107825128 -0.0139296455 0.0535339825 -0.00654801307 0.0205126256 0.073051922 0.000331732008 0.0105341692 0.0672488511 0.0202884115 -0.0141678154 0.0564019829 0.017266266 0.0204897169 0.0769904405 0.0079179462 0.0205126256 0.073051922 0.000331732008 -0.00611983472 0.0574014969 -0.0107825128 0.00295834336 0.0728039145 0.0210213102 -0.00522235315 0.0694202185 0.0210121907 -0.0129120015 0.0662666336 0.0178018752 0.0104929451 0.0767083839 0.0190711338 -0.017133873 0.062734358 0.0100042671 -0.0168923493 0.0580571815 0.0017505337 0.0171520133 0.0811970234 0.0144106839 0.00337753235 0.0709815323 -0.0115840193 0.0116068404 0.0747274086 -0.00978267565 0.0188622288 0.0784887373 -0.00718481652 -0.00508915866 0.0672190264 -0.00976209808 -0.0128610553 0.0629164353 -0.00614083884 0.022953527 0.0823126063 -7.29968269e-06 0.0104929451 0.0767083839 0.0190711338 -0.0129120015 0.0662666336 0.0178018752 0.0225421954 0.0861696228 0.00807287917 0.022953527 0.0823126063 -7.29968269e-06 -0.00508915866 0.0672190264 -0.00976209808 0.00341017195 0.0817096978 0.0201847553 -0.00460620411 0.079140842 0.0199935678 -0.0111377873 0.0759373605 0.0172082968 -0.0152256442 0.0722880214 0.00998257194 0.0112485299 0.0857210383 0.0186123233 -0.0158460103 0.0679701045 0.00210932246 0.0182175711 0.0903300196 0.0146036763 -0.0034850915 0.0767188519 -0.00928133354 0.0050185849 0.0805645809 -0.0106660118 0.0135057382 0.0839227289 -0.0120922551 0.0209155958 0.0877805278 -0.00776454387 -0.011566706 0.0723583326 -0.00548299169 0.0237655416 0.0916652605 0.000445944694 0.0112485299 0.0857210383 0.0186123233 -0.0111377873 0.0759373605 0.0172082968 0.0232070908 0.0956446305 0.00877328869 -0.0034850915 0.0767188519 -0.00928133354 0.0237655416 0.0916652605 0.000445944694 0.00387636875 0.0900942609 0.0184828024 -0.00647316081 0.0859254673 0.0169088598 -0.0129175764 0.0818585902 0.00985565316 -0.0138512868 0.0774812624 0.00194146659 0.0111329537 0.093923673 0.0171854179 0.0182175711 0.0903300196 0.0146036763 0.0178961381 0.0995765477 0.0150993979 -0.00191887887 0.0862705484 -0.00973940548 -0.00924242567 0.0819083974 -0.00540845329 0.00597437145 0.0898866877 -0.0140450262 0.0144415908 0.093667604 -0.011618888 0.0212062225 0.0973874405 -0.0065516294 0.0245708507 0.101528116 0.00127730612 -0.00647316081 0.0859254673 0.0169088598 0.0178961381 0.0995765477 0.0150993979 0.0223530252 0.105032623 0.0088647129 -0.00191887887 0.0862705484 -0.00973940548 0.0245708507 0.101528116 0.00127730612 0.00349134789 0.0951966494 0.0166701544 -0.00345423678 0.0940873548 0.0151163768 -0.00951271504 0.0912129581 0.00903019961 -0.0121510001 0.0870220289 0.00149906764 0.00954595953 0.102253065 0.0170989819 0.0161041673 0.108986728 0.0140202967 -0.00811214466 0.0916611701 -0.00617887033 -0.00183535554 0.0957453176 -0.0125797978 0.007192255 0.0996143967 -0.0131034832 0.0162001867 0.103486612 -0.0118559841 0.0220019482 0.107728958 -0.00474969484 0.020967951 0.111552395 0.00482430588 -0.00345423678 0.0940873548 0.0151163768 0.0161041673 0.108986728 0.0140202967 -0.00183535554 0.0957453176 -0.0125797978 0.020967951 0.111552395 0.00482430588 0.00114627939 0.102514923 0.0141093861 -0.00551811373 0.100509778 0.00863174442 -0.0088840872 0.0966884941 0.00128941017 0.00642788829 0.110905997 0.0150683001 0.020967951 0.111552395 0.00482430588 0.0129044643 0.116019011 0.00825182069 0.0161041673 0.108986728 0.0140202967 -0.00726941321 0.101217404 -0.00682309084 8.66037371e-05 0.10514953 -0.0109979557 0.00853234343 0.108726576 -0.0126630655 0.0170196965 0.112368755 -0.00898234174 0.0158671271 0.115474872 -0.00117117807 0.0220019482 0.107728958 -0.00474969484 -0.00551811373 0.100509778 0.00863174442 0.0129044643 0.116019011 0.00825182069 8.66037371e-05 0.10514953 -0.0109979557 0.0170196965 0.112368755 -0.00898234174 -0.00224220497 0.109585695 0.00968382228 -0.00735213282 0.106572613 0.00182187464 0.00394012732 0.115497231 0.00805915985 0.00642788829 0.110905997 0.0150683001 0.00653833384 0.117180482 -0.000137833282 -0.00473834248 0.109955534 -0.00559503539 0.00185080839 0.113757692 -0.00731218746 0.00979393255 0.115370177 -0.00857454725 0.00979393255 0.115370177 -0.00857454725 -0.00224220497 0.109585695 0.00968382228 0.00394012732 0.115497231 0.00805915985 0.00185080839 0.113757692 -0.00731218746 -0.0026093151 0.11479523 0.00172969711 -0.0026093151 0.11479523 0.00172969711 -0.00224220497 0.109585695 0.00968382228 0.00185080839 0.113757692 -0.00731218746 </float_array>
          <technique_common>
            <accessor count="264" offset="0" source="#mesh_0-positions-array" stride="3">
              <param name="X" type="float" />
              <param name="Y" type="float" />
              <param name="Z" type="float" />
            </accessor>
          </technique_common>
        </source>
        <source id="mesh_0-tex0" name="mesh_0-tex0">
          <float_array id="mesh_0-tex0-array" count="528"> 0.861666024 0.673463881 0.873277783 0.631910563 0.830774367 0.656309903 0.89255774 0.6906178 0.814555943 0.605656028 0.804582119 0.687003851 0.425180823 0.76604265 0.398061454 0.795702696 0.450984001 0.786590934 0.924805403 0.662412405 0.86507076 0.57732302 0.762582064 0.633056521 0.372329891 0.750958383 0.428829312 0.838546515 0.225710303 0.0789538622 0.249473751 0.0475715399 0.191798985 0.0316248536 0.917970896 0.603763998 0.809783041 0.550502956 0.7633937 0.577024341 0.343871236 0.79421699 0.755972445 0.68462348 0.370058 0.840613127 0.170795798 0.0508707762 0.186335355 0.11447227 0.230731815 0.139764071 0.909585416 0.548441052 0.860095143 0.522319555 0.707536757 0.617029905 0.659875751 0.649616182 0.717848897 0.671727061 0.319387943 0.750526309 0.716991365 0.723295152 0.665518939 0.701830447 0.397791415 0.885231793 0.450984001 0.881581724 0.192580029 0.172471583 0.231578916 0.197089434 0.764995933 0.522004545 0.807209194 0.49497962 0.654914081 0.594364464 0.28983888 0.797667742 0.313966453 0.843002081 0.265948206 0.762946069 0.34121412 0.888427317 0.127598315 0.0934696198 0.425114274 0.929411411 0.136356041 0.148320436 0.196404278 0.229152083 0.903553009 0.493635416 0.701567173 0.563036025 0.856325209 0.467160404 0.607101798 0.624832153 0.612032115 0.678133011 0.235656723 0.805712819 0.37017861 0.936221063 0.114264332 0.0379632115 0.142318338 0.203940213 0.233526632 0.253973663 0.763226449 0.465911269 0.651896 0.539615333 0.80617255 0.439457059 0.604355097 0.569296956 0.615484834 0.721380949 0.256450206 0.847879052 0.282984287 0.891743898 0.313426077 0.93505913 0.0711325556 0.0736899972 0.0812798738 0.126509488 0.0734846741 0.0338329077 0.0892126039 0.179294765 0.200010329 0.285478532 0.147245705 0.259572268 0.898926139 0.439354599 0.698550045 0.508316994 0.855189264 0.412573576 0.556311846 0.596898437 0.556822836 0.654078066 0.561285496 0.713955164 0.200457752 0.846684873 0.344304949 0.967214704 0.0319702439 0.0568809509 0.0957480669 0.23408258 0.23311767 0.310414672 0.762241244 0.409309208 0.649108529 0.484355211 0.60271883 0.512917757 0.80750519 0.384340227 0.559040248 0.540072143 0.218371242 0.90101254 0.256193161 0.939410985 0.291626066 0.968375146 0.0316248462 0.103403211 0.040041592 0.154935718 0.482809305 0.0436413884 0.482397676 0.0895080566 0.515672982 0.0632651448 0.0468314178 0.208866 0.202278256 0.341137111 0.150799841 0.315488458 0.10009101 0.290006757 0.89837569 0.386086106 0.697864771 0.452893734 0.856731892 0.358890891 0.328782529 0.220339298 0.290402681 0.190528631 0.29498896 0.249968529 0.326295257 0.161669016 0.287597299 0.130565703 0.326229036 0.101696968 0.288749486 0.0673183203 0.336503893 0.0419979692 0.442417026 0.058719933 0.0514546111 0.264114678 0.233429506 0.365988076 0.649793565 0.42836082 0.764417887 0.354576826 0.599626958 0.456626415 0.556722701 0.483688116 0.810295224 0.330366969 0.33150211 0.279425502 0.386709392 0.0816558599 0.392108202 0.0370710492 0.434961885 0.111777902 0.477633476 0.141401291 0.430682808 0.166015685 0.472413868 0.195501983 0.431352884 0.221577048 0.471979648 0.250506997 0.205538243 0.3961761 0.154602543 0.370752811 0.104916401 0.345060527 0.0572245978 0.320167542 0.902300954 0.333145261 0.694984615 0.398973465 0.296027601 0.309284806 0.857562542 0.305913329 0.381118864 0.192899585 0.381561935 0.249711394 0.380587906 0.135811925 0.433477908 0.277629554 0.238795549 0.421363294 0.47352469 0.306359291 0.646508515 0.373852074 0.598813593 0.400146961 0.768964529 0.300412178 0.554535508 0.42571795 0.335731119 0.33881855 0.815285325 0.278026164 0.383644074 0.307055771 0.158416644 0.426543713 0.205405951 0.450521886 0.108528167 0.401050925 0.0640968159 0.373091578 0.43777138 0.333775461 0.903003931 0.279171824 0.690549552 0.34535718 0.300893933 0.369737089 0.865646362 0.251208842 0.232709318 0.477830172 0.476668477 0.359187841 0.642359078 0.319229662 0.597300589 0.344673157 0.554462194 0.368360877 0.780417025 0.246551871 0.342203707 0.399248838 0.387714595 0.365051389 0.825160444 0.222890198 0.114074461 0.456907034 0.163827792 0.481947422 0.209207848 0.507246673 0.0688663349 0.433295846 0.442594349 0.390573263 0.916490614 0.225526214 0.682979047 0.291242003 0.305544764 0.429639697 0.875467002 0.197748721 0.243632272 0.53432703 0.478130877 0.419031084 0.638132453 0.267924428 0.593387783 0.288579822 0.557389379 0.311701238 0.350910991 0.457348824 0.789831281 0.19464916 0.393097192 0.424941063 0.832088113 0.169803798 0.0761861727 0.49144423 0.122299768 0.515757322 0.16839321 0.537090659 0.217471749 0.563755512 0.446345687 0.448094606 0.921499729 0.171025753 0.680494368 0.239108086 0.317433447 0.487874269 0.878859758 0.142391324 0.483421594 0.476986527 0.246338814 0.591423392 0.634258211 0.219570398 0.576942861 0.25108254 0.360855341 0.515764952 0.402760953 0.482736409 0.67341131 0.19223398 0.716991365 0.207462907 0.833751678 0.116040409 0.0817356855 0.549492657 0.455133766 0.506563067 0.119588397 0.57103008 0.171737894 0.596598744 0.218309194 0.622627854 0.924805403 0.113317132 0.332258314 0.550399184 0.708199322 0.154814482 0.881264567 0.0881583095 0.494132966 0.534467518 0.249473751 0.651778519 0.627895594 0.190624118 0.588082135 0.202101231 0.376416743 0.573161066 0.41358164 0.540265799 0.657862365 0.145760417 0.839722395 0.0626063943 0.467104435 0.564658821 0.0747808963 0.605763674 0.125345558 0.63068974 0.178689823 0.65640074 0.222833395 0.686307251 0.902146339 0.0534097552 0.352132797 0.599653661 0.690495968 0.102287114 0.516338646 0.588465273 0.231333017 0.713473976 0.608340144 0.150441706 0.390375257 0.631001651 0.425540864 0.599904656 0.632875085 0.0985297561 0.7614187 0.853468001 0.721465588 0.89346993 0.7614187 0.915699661 0.477783471 0.62147373 0.0857796893 0.663869441 0.131176904 0.686419606 0.185535327 0.711695254 0.71348995 0.834506691 0.745686114 0.798236132 0.570272207 0.166743755 0.665717363 0.064302206 0.515672982 0.646976531 0.702346563 0.788649797 0.58262831 0.112408102 0.430647165 0.66012758 0.671985567 0.915464461 0.708834231 0.946590245 0.66299969 0.864394546 0.479716718 0.67620635 0.0995340645 0.718029916 0.143243343 0.728741348 0.660515964 0.809879184 0.394677401 0.688156545 0.613906622 0.0739515424 0.502084255 0.702335715 0.443347543 0.712402701 0.619816899 0.897829711 0.648072243 0.939483464 0.621610522 0.837016225 </float_array>
          <technique_common>
            <accessor count="264" offset="0" source="#mesh_0-tex0-array" stride="2">
              <param name="S" type="float" />
              <param name="T" type="float" />
            </accessor>
          </technique_common>
        </source>
        <vertices id="mesh_0-vertices">
          <input semantic="POSITION" source="#mesh_0-positions" />
        </vertices>
        <polylist count="368" material="defaultMaterial">
          <input offset="0" semantic="VERTEX" source="#mesh_0-vertices" />
          <input offset="0" semantic="TEXCOORD" source="#mesh_0-tex0" set="0" />
          <vcount>3 3 3 3 3 3 3 3 3 3 3 3 3 3 3 3 3 3 3 3 3 3 3 3 3 3 3 3 3 3 3 3 3 3 3 3 3 3 3 3 3 3 3 3 3 3 3 3 3 3 3 3 3 3 3 3 3 3 3 3 3 3 3 3 3 3 3 3 3 3 3 3 3 3 3 3 3 3 3 3 3 3 3 3 3 3 3 3 3 3 3 3 3 3 3 3 3 3 3 3 3 3 3 3 3 3 3 3 3 3 3 3 3 3 3 3 3 3 3 3 3 3 3 3 3 3 3 3 3 3 3 3 3 3 3 3 3 3 3 3 3 3 3 3 3 3 3 3 3 3 3 3 3 3 3 3 3 3 3 3 3 3 3 3 3 3 3 3 3 3 3 3 3 3 3 3 3 3 3 3 3 3 3 3 3 3 3 3 3 3 3 3 3 3 3 3 3 3 3 3 3 3 3 3 3 3 3 3 3 3 3 3 3 3 3 3 3 3 3 3 3 3 3 3 3 3 3 3 3 3 3 3 3 3 3 3 3 3 3 3 3 3 3 3 3 3 3 3 3 3 3 3 3 3 3 3 3 3 3 3 3 3 3 3 3 3 3 3 3 3 3 3 3 3 3 3 3 3 3 3 3 3 3 3 3 3 3 3 3 3 3 3 3 3 3 3 3 3 3 3 3 3 3 3 3 3 3 3 3 3 3 3 3 3 3 3 3 3 3 3 3 3 3 3 3 3 3 3 3 3 3 3 3 3 3 3 3 3 3 3 3 3 3 3 3 3 3 3 3 3 3 3 3 3 3 3 3 3 3 3 3 3 3 3 3 3 3 3 </vcount>
          <p>0 1 2 0 3 1 2 1 4 5 0 2 6 7 8 1 3 9 4 1 10 2 4 11 12 7 6 5 2 11 8 7 13 14 15 16 1 9 17 10 1 17 18 4 10 4 19 11 12 20 7 5 11 21 7 22 13 23 14 16 24 25 14 10 17 26 18 19 4 18 10 27 28 29 30 12 31 20 20 22 7 32 30 33 22 34 13 24 14 23 35 13 34 24 36 25 36 37 25 10 26 27 18 38 19 18 27 39 28 40 29 30 29 33 31 41 20 20 42 22 31 43 41 22 44 34 24 23 45 46 35 34 24 47 36 48 37 36 26 49 27 18 39 38 50 40 28 39 27 51 40 52 29 53 33 29 20 41 42 22 42 44 43 54 41 55 34 44 56 45 23 24 45 47 46 34 55 36 47 57 48 58 37 48 36 57 27 49 51 38 39 59 50 60 40 39 51 61 40 62 52 53 29 52 53 63 33 64 42 41 65 44 42 54 64 41 55 44 66 56 67 45 45 68 47 56 69 67 47 70 57 71 58 48 72 48 57 73 51 49 39 61 59 50 74 60 40 60 62 75 61 51 62 76 52 53 52 77 53 78 63 65 42 64 65 66 44 54 79 64 80 55 66 67 68 45 68 70 47 81 67 69 82 57 70 71 83 58 71 48 72 72 57 82 73 75 51 84 59 61 60 74 85 60 86 62 75 87 61 62 88 76 76 77 52 53 77 78 89 65 64 65 90 66 89 64 79 91 80 66 92 68 67 93 70 68 94 95 96 97 82 70 98 83 71 99 71 72 72 82 100 101 75 73 102 85 74 84 61 87 60 85 86 62 86 88 75 103 87 104 105 106 107 108 105 109 110 108 89 90 65 91 66 90 109 111 110 112 95 94 92 93 68 93 97 70 97 113 82 98 114 83 99 98 71 99 72 100 82 113 100 101 103 75 102 115 85 116 84 87 86 85 117 88 86 118 119 87 103 104 107 105 104 106 120 109 108 107 121 122 111 112 122 121 121 111 109 112 123 95 123 124 95 125 126 124 127 128 126 98 129 114 99 130 98 99 100 131 100 113 132 133 103 101 134 115 102 117 85 115 116 87 119 86 117 118 106 135 120 136 119 103 104 137 107 138 104 120 139 109 107 112 121 123 121 109 139 123 125 124 125 127 126 127 140 128 98 130 129 129 141 114 99 131 130 100 132 131 140 142 128 133 136 103 134 143 115 117 115 144 116 119 145 146 118 117 147 120 135 136 148 119 138 137 104 139 107 137 138 120 149 121 139 123 123 139 125 137 127 125 138 140 127 130 150 129 129 151 141 152 130 131 132 153 131 140 154 142 133 155 136 134 156 143 115 143 144 146 117 144 148 145 119 147 135 157 149 120 147 136 158 148 138 127 137 139 137 125 138 149 140 152 150 130 129 150 151 151 159 141 152 131 153 142 154 160 149 154 140 155 158 136 156 161 143 143 162 144 146 144 163 148 164 145 147 157 165 149 147 166 167 148 158 152 168 150 169 151 150 151 170 159 152 153 171 154 172 160 149 166 154 173 158 155 174 161 156 161 162 143 163 144 162 157 175 165 167 164 148 147 165 166 176 167 158 152 171 168 169 150 168 169 170 151 177 159 170 172 178 160 154 166 172 173 176 158 174 179 161 180 162 161 181 163 162 165 175 182 167 183 164 166 165 184 176 185 167 186 168 171 169 168 187 169 188 170 177 170 189 190 178 172 166 184 172 173 191 176 174 192 179 180 161 179 181 162 180 193 182 175 184 165 182 185 183 167 176 194 185 187 168 186 195 178 190 169 187 188 170 188 189 177 189 196 190 172 184 191 194 176 192 197 179 198 180 179 181 180 198 193 199 182 184 182 200 201 192 202 194 203 185 187 186 204 195 190 205 187 206 188 189 188 207 189 208 196 190 184 200 191 209 194 201 197 192 198 179 197 193 210 199 200 182 199 201 202 211 194 212 203 195 205 213 187 204 206 205 190 200 207 188 206 189 207 208 208 214 196 209 212 194 215 197 201 216 198 197 217 199 210 218 200 199 219 201 211 220 203 212 213 205 221 204 222 206 218 205 200 223 207 206 224 208 207 208 225 214 209 226 212 215 216 197 215 201 219 217 210 227 218 199 217 219 211 228 226 220 212 218 221 205 213 221 229 223 206 222 223 224 207 224 225 208 225 230 214 215 231 216 215 219 231 232 217 227 218 217 233 234 219 228 235 236 237 218 233 221 238 229 221 239 223 222 223 240 224 224 241 225 242 235 243 231 244 216 234 231 219 232 233 217 234 228 245 242 236 235 238 221 233 238 246 229 239 240 223 240 241 224 247 242 243 248 244 231 248 231 234 249 233 232 250 251 236 252 236 242 238 233 249 253 246 238 239 254 240 240 255 241 247 256 242 249 232 257 248 234 258 252 250 236 252 242 256 253 238 249 253 259 246 240 254 255 249 257 260 261 262 250 261 250 252 263 252 256 253 249 260 253 260 259 261 252 263 </p>
        </polylist>
      </mesh>
    </geometry>
  </library_geometries>
  <library_controllers>
  </library_controllers>
  <library_visual_scenes>
    <visual_scene id="Scene" name="Scene">
      <node id="node" name="" type="NODE">
        <matrix sid="matrix">1 0 0 0 0 1 0 0 0 0 1 0 0 0 0 1</matrix>
        <instance_geometry url="#mesh_0">
          <bind_material>
            <technique_common>
              <instance_material symbol="defaultMaterial" target="#material">
                <bind_vertex_input semantic="CHANNEL0" input_semantic="TEXCOORD" input_set="0"/>
              </instance_material>
            </technique_common>
          </bind_material>
        </instance_geometry>
      </node>
    </visual_scene>
  </library_visual_scenes>
  <scene>
    <instance_visual_scene url="#Scene" />
  </scene>
</COLLADA>
